<svg width="20" height="20" viewBox="0 0 20 20" fill="none" xmlns="http://www.w3.org/2000/svg">
<path d="M9.9996 8C11.1041 8.00005 11.9996 8.89546 11.9996 10C11.9996 11.1045 11.1041 12 9.9996 12C8.89503 12 7.9996 11.1046 7.9996 10C7.9996 8.89543 8.89503 8 9.9996 8Z" fill="black"/>
<path fill-rule="evenodd" clip-rule="evenodd" d="M9.9996 4C13.0475 4.00003 15.0558 5.43139 16.276 6.84766C16.8799 7.54871 17.2933 8.2464 17.5562 8.76953C17.6882 9.03212 17.7843 9.25412 17.8482 9.41406C17.8802 9.49398 17.9045 9.55927 17.9215 9.60645C17.9298 9.62964 17.9361 9.6487 17.941 9.66309C17.9435 9.67034 17.9462 9.67677 17.9478 9.68164C17.9486 9.68403 17.9492 9.68668 17.9498 9.68848L17.9508 9.69043C17.9509 9.69095 17.9425 9.69538 16.9996 10C17.9425 10.3046 17.9509 10.3081 17.9508 10.3086L17.9498 10.3115C17.9492 10.3133 17.9486 10.316 17.9478 10.3184C17.9462 10.3232 17.9435 10.3297 17.941 10.3369C17.9361 10.3513 17.9298 10.3704 17.9215 10.3936C17.9045 10.4407 17.8802 10.506 17.8482 10.5859C17.7843 10.7459 17.6882 10.9679 17.5562 11.2305C17.2933 11.7536 16.8799 12.4513 16.276 13.1523C15.0558 14.5686 13.0475 16 9.9996 16C6.95165 16 4.94343 14.5686 3.72323 13.1523C3.11925 12.4513 2.7059 11.7536 2.44296 11.2305C2.31099 10.9679 2.21495 10.7459 2.15097 10.5859C2.11901 10.506 2.09466 10.4407 2.07773 10.3936C2.0694 10.3704 2.06309 10.3513 2.0582 10.3369C2.05573 10.3297 2.05298 10.3232 2.05136 10.3184C2.05057 10.316 2.04999 10.3133 2.04941 10.3115L2.04843 10.3096C2.04827 10.3091 2.04803 10.3074 2.9996 10C2.04803 9.69257 2.04827 9.6919 2.04843 9.69141L2.04941 9.68848C2.04999 9.68668 2.05057 9.68402 2.05136 9.68164C2.05298 9.67677 2.05573 9.67034 2.0582 9.66309C2.06309 9.6487 2.0694 9.62964 2.07773 9.60645C2.09466 9.55926 2.11901 9.49398 2.15097 9.41406C2.21495 9.25412 2.31099 9.03212 2.44296 8.76953C2.7059 8.24639 3.11925 7.54871 3.72323 6.84766C4.94343 5.43139 6.95165 4 9.9996 4ZM9.9996 6C7.66313 6 6.17155 7.0687 5.23788 8.15234C4.76508 8.70113 4.4383 9.25365 4.23007 9.66797C4.16687 9.79373 4.1158 9.90602 4.0748 10C4.1158 10.094 4.16687 10.2063 4.23007 10.332C4.4383 10.7464 4.76508 11.2989 5.23788 11.8477C6.17155 12.9313 7.66313 14 9.9996 14C12.3361 14 13.8277 12.9313 14.7613 11.8477C15.2341 11.2989 15.5609 10.7463 15.7691 10.332C15.8323 10.2064 15.8825 10.0939 15.9234 10C15.8825 9.9061 15.8323 9.79357 15.7691 9.66797C15.5609 9.25366 15.2341 8.70113 14.7613 8.15234C13.8277 7.0687 12.3361 6.00003 9.9996 6Z" fill="black"/>
<path d="M2.9996 10L2.04843 10.3076C1.98386 10.1077 1.98386 9.89127 2.04843 9.69141L2.9996 10Z" fill="black"/>
<path d="M17.9508 9.69238C18.0153 9.89223 18.0153 10.1087 17.9508 10.3086L16.9996 10L17.9508 9.69238Z" fill="black"/>
</svg>
