<svg width="20" height="20" viewBox="0 0 20 20" fill="none" xmlns="http://www.w3.org/2000/svg">
<path fill-rule="evenodd" clip-rule="evenodd" d="M18.707 17.293L17.293 18.707L13.7344 15.1484C12.7157 15.6591 11.4814 16 10 16C6.95215 15.9999 4.9438 14.5686 3.72363 13.1523C3.11969 12.4513 2.70628 11.7536 2.44336 11.2305C2.31141 10.9679 2.21534 10.7459 2.15137 10.5859C2.11942 10.506 2.09506 10.4407 2.07812 10.3936C2.06981 10.3704 2.06349 10.3513 2.05859 10.3369C2.05613 10.3297 2.05337 10.3232 2.05176 10.3184C2.05098 10.316 2.0498 10.3115 2.0498 10.3115L2.04883 10.3096C2.04883 10.3096 2.05888 10.3041 3 10C2.05888 9.69595 2.04883 9.69141 2.04883 9.69141L2.0498 9.68848C2.0498 9.68848 2.05098 9.68401 2.05176 9.68164C2.05337 9.67678 2.05613 9.67032 2.05859 9.66309C2.06349 9.64871 2.06981 9.62961 2.07812 9.60645C2.09506 9.55928 2.11942 9.49395 2.15137 9.41406C2.21534 9.25413 2.31141 9.03209 2.44336 8.76953C2.70628 8.24641 3.11969 7.54868 3.72363 6.84766C3.9735 6.55764 4.25778 6.26867 4.57617 5.99023L1.29297 2.70703L2.70703 1.29297L18.707 17.293ZM5.99219 7.40625C5.7077 7.64502 5.45743 7.898 5.23828 8.15234C4.76552 8.7011 4.43869 9.25367 4.23047 9.66797C4.16728 9.7937 4.11619 9.90604 4.0752 10C4.11619 10.094 4.16728 10.2063 4.23047 10.332C4.43869 10.7463 4.76552 11.2989 5.23828 11.8477C6.17193 12.9313 7.66363 13.9999 10 14C10.8445 14 11.5779 13.859 12.2148 13.6289L5.99219 7.40625Z" fill="black"/>
<path d="M10 4C13.0479 4.00003 15.0562 5.43142 16.2764 6.84766C16.8803 7.54868 17.2937 8.24641 17.5566 8.76953C17.6886 9.03209 17.7847 9.25413 17.8486 9.41406C17.8806 9.49395 17.9049 9.55927 17.9219 9.60645C17.9302 9.62961 17.9365 9.64871 17.9414 9.66309C17.9439 9.67031 17.9466 9.67678 17.9482 9.68164C17.949 9.684 17.9502 9.68848 17.9502 9.68848L17.9512 9.69043C17.9488 9.69173 17.9013 9.70883 17 10C17.9013 10.2912 17.9488 10.3073 17.9512 10.3086L17.9502 10.3115C17.9502 10.3115 17.949 10.316 17.9482 10.3184C17.9466 10.3232 17.9439 10.3297 17.9414 10.3369C17.9365 10.3513 17.9302 10.3704 17.9219 10.3936C17.9049 10.4407 17.8806 10.5061 17.8486 10.5859C17.7847 10.7459 17.6886 10.9679 17.5566 11.2305C17.3486 11.6444 17.0443 12.1661 16.6279 12.7139L15.1982 11.2842C15.4444 10.9338 15.633 10.6036 15.7695 10.332C15.8326 10.2065 15.8829 10.0939 15.9238 10C15.8829 9.90611 15.8326 9.79354 15.7695 9.66797C15.5613 9.25366 15.2345 8.7011 14.7617 8.15234C13.8281 7.06873 12.3364 6.00003 10 6C9.97188 6 9.94389 6.00164 9.91602 6.00195L8.1123 4.19824C8.69167 4.07176 9.3199 4.00001 10 4Z" fill="black"/>
<path d="M3 10L2.04883 10.3076C1.98428 10.1078 1.98428 9.89124 2.04883 9.69141L3 10Z" fill="black"/>
<path d="M17.9512 9.69238C18.0157 9.89223 18.0157 10.1087 17.9512 10.3086L17 10L17.9512 9.69238Z" fill="black"/>
</svg>
